<svg width="27" height="58" fill="none" xmlns="http://www.w3.org/2000/svg"><path d="M11.814 4.33a4.782 4.782 0 0 0-.013-4.22 3.196 3.196 0 0 0-1.848.468 3.431 3.431 0 0 0-1.299 1.457 4.751 4.751 0 0 0-.49 2.12 4.69 4.69 0 0 0 .504 2.102 3.233 3.233 0 0 0 1.845-.476 3.462 3.462 0 0 0 1.303-1.451h-.002Zm-5.113 7.298a5.024 5.024 0 0 0 .434-2.246 4.92 4.92 0 0 0-.61-2.189 4.745 4.745 0 0 0-1.342-1.788 4.52 4.52 0 0 0-1.989-.942 5.023 5.023 0 0 0-.433 2.246 4.9 4.9 0 0 0 .61 2.19 4.677 4.677 0 0 0 1.336 1.794c.581.476 1.265.798 1.994.937v-.002Zm.703.108a3.799 3.799 0 0 0 1.892.853 3.801 3.801 0 0 0 3.666-1.6c.41-.59.651-1.284.699-2.002a3.733 3.733 0 0 0-1.879-.85c-.69-.097-1.398 0-2.043.286A3.85 3.85 0 0 0 8.125 9.74a4.06 4.06 0 0 0-.721 1.995Zm-.813 9.556a5.742 5.742 0 0 0 .102-2.532 5.552 5.552 0 0 0-.997-2.298A4.875 4.875 0 0 0 3.99 14.76a4.73 4.73 0 0 0-2.293-.657 5.814 5.814 0 0 0-.08 2.515c.158.833.495 1.613.986 2.286a4.959 4.959 0 0 0 1.702 1.705c.695.416 1.48.65 2.285.682v.002Zm.789-.048a3.905 3.905 0 0 0 2.195.637 4.001 4.001 0 0 0 2.19-.706 4.443 4.443 0 0 0 1.506-1.756 4.57 4.57 0 0 0 .437-2.294 3.896 3.896 0 0 0-2.148-.58c-.76.02-1.499.26-2.132.69a4.437 4.437 0 0 0-1.555 1.72 4.569 4.569 0 0 0-.493 2.29v-.001Zm-.487 9.893a6.576 6.576 0 0 0-.48-2.775 6.279 6.279 0 0 0-1.585-2.272 4.834 4.834 0 0 0-2.16-1.354 4.739 4.739 0 0 0-2.53-.056c-.043.95.121 1.898.479 2.775A6.276 6.276 0 0 0 2.2 29.727a4.914 4.914 0 0 0 2.163 1.343c.823.247 1.694.27 2.529.067Zm1.85-5.293a5.545 5.545 0 0 0-1.135 2.384 5.62 5.62 0 0 0 .088 2.65 4.014 4.014 0 0 0 2.416-.034 4.238 4.238 0 0 0 2.014-1.413c.572-.68.97-1.496 1.158-2.373a5.529 5.529 0 0 0-.085-2.652 4.065 4.065 0 0 0-2.427.026 4.28 4.28 0 0 0-2.03 1.412ZM6.825 35.08a4.652 4.652 0 0 0-2.296-1.027 4.655 4.655 0 0 0-2.497.324c.077.954.356 1.873.82 2.694a6.228 6.228 0 0 0 1.854 2.053 4.566 4.566 0 0 0 2.277 1.041 4.57 4.57 0 0 0 2.481-.319 6.569 6.569 0 0 0-.799-2.699 6.246 6.246 0 0 0-1.84-2.067Zm3.29 4.357a4.03 4.03 0 0 0 2.367-.396 4.3 4.3 0 0 0 1.784-1.682 5.745 5.745 0 0 0 .425-5.205 4.043 4.043 0 0 0-2.392.392 4.307 4.307 0 0 0-1.794 1.705 6.024 6.024 0 0 0-.39 5.186Zm4.977 8.707a6.577 6.577 0 0 0-1.67-2.491 6.258 6.258 0 0 0-2.568-1.445 4.486 4.486 0 0 0-2.62-.11c-.87.226-1.66.705-2.282 1.382a6.584 6.584 0 0 0 1.659 2.504 6.246 6.246 0 0 0 2.57 1.459c.847.3 1.76.336 2.63.104a4.678 4.678 0 0 0 2.28-1.403Zm.59-.741a4.85 4.85 0 0 0 2.265-1.54c.599-.729.988-1.617 1.119-2.56a7.16 7.16 0 0 0 .017-3.051 6.911 6.911 0 0 0-1.253-2.74 4.887 4.887 0 0 0-2.256 1.547c-.6.727-.99 1.61-1.127 2.55a7.158 7.158 0 0 0-.017 3.054 6.91 6.91 0 0 0 1.252 2.74Zm-3.52 6.065a7.299 7.299 0 0 0 1.828 2.755 6.94 6.94 0 0 0 2.821 1.613c.945.316 1.96.338 2.918.064a5.17 5.17 0 0 0 2.496-1.608 7.124 7.124 0 0 0-1.814-2.745 6.77 6.77 0 0 0-2.818-1.588 4.917 4.917 0 0 0-2.921-.086c-.97.271-1.84.826-2.508 1.595h-.002Zm12.936-8.939a5.302 5.302 0 0 0-2.485 1.695 5.618 5.618 0 0 0-1.222 2.813 7.876 7.876 0 0 0 .044 3.403 7.595 7.595 0 0 0 1.473 3.021 5.478 5.478 0 0 0 2.472-1.724 5.793 5.793 0 0 0 1.242-2.81 7.759 7.759 0 0 0-.042-3.394A7.468 7.468 0 0 0 25.1 44.53Z" fill="#fff"/></svg>