<svg width="28" height="59" fill="none" xmlns="http://www.w3.org/2000/svg"><path d="M15.726 4.274a4.781 4.781 0 0 1 .014-4.22 3.196 3.196 0 0 1 1.848.469c.558.345 1.012.85 1.298 1.457.325.656.493 1.383.49 2.12a4.692 4.692 0 0 1-.504 2.101 3.233 3.233 0 0 1-1.845-.475 3.462 3.462 0 0 1-1.303-1.452h.002Zm5.113 7.299a5.023 5.023 0 0 1-.433-2.246 4.92 4.92 0 0 1 .61-2.19 4.745 4.745 0 0 1 1.341-1.787 4.52 4.52 0 0 1 1.989-.942c.315.704.464 1.474.433 2.246a4.898 4.898 0 0 1-.61 2.189 4.676 4.676 0 0 1-1.336 1.795 4.466 4.466 0 0 1-1.994.937v-.002Zm-.702.107a3.798 3.798 0 0 1-1.893.854 3.8 3.8 0 0 1-3.665-1.601 3.971 3.971 0 0 1-.7-2.002 3.732 3.732 0 0 1 1.88-.85c.69-.097 1.397 0 2.042.287a3.848 3.848 0 0 1 1.615 1.318c.413.586.66 1.276.72 1.994Zm.812 9.557a5.743 5.743 0 0 1-.102-2.532 5.551 5.551 0 0 1 .997-2.298 4.873 4.873 0 0 1 1.706-1.702 4.73 4.73 0 0 1 2.292-.657c.21.824.237 1.682.08 2.515a5.66 5.66 0 0 1-.986 2.286 4.958 4.958 0 0 1-1.702 1.705c-.695.416-1.48.65-2.285.681v.002Zm-.789-.048a3.905 3.905 0 0 1-2.195.636 4.001 4.001 0 0 1-2.19-.706 4.443 4.443 0 0 1-1.506-1.755 4.57 4.57 0 0 1-.437-2.295 3.896 3.896 0 0 1 2.148-.579c.76.02 1.499.26 2.132.69a4.436 4.436 0 0 1 1.555 1.72c.36.705.53 1.496.493 2.29v-.001Zm.488 9.893a6.577 6.577 0 0 1 .479-2.775 6.277 6.277 0 0 1 1.586-2.272 4.835 4.835 0 0 1 2.159-1.355 4.74 4.74 0 0 1 2.53-.055 6.576 6.576 0 0 1-.479 2.775 6.276 6.276 0 0 1-1.584 2.272 4.915 4.915 0 0 1-2.163 1.342 4.82 4.82 0 0 1-2.528.068Zm-1.85-5.294a5.544 5.544 0 0 1 1.135 2.384 5.618 5.618 0 0 1-.09 2.651 4.014 4.014 0 0 1-2.414-.034 4.238 4.238 0 0 1-2.014-1.414 5.452 5.452 0 0 1-1.158-2.373 5.529 5.529 0 0 1 .085-2.651 4.065 4.065 0 0 1 2.427.026 4.28 4.28 0 0 1 2.029 1.411Zm1.916 9.236a4.65 4.65 0 0 1 2.297-1.026 4.655 4.655 0 0 1 2.496.324 6.524 6.524 0 0 1-.82 2.694 6.226 6.226 0 0 1-1.854 2.053 4.565 4.565 0 0 1-2.277 1.04 4.57 4.57 0 0 1-2.48-.318c.068-.95.34-1.87.798-2.7a6.246 6.246 0 0 1 1.84-2.067Zm-3.29 4.357a4.03 4.03 0 0 1-2.367-.395 4.3 4.3 0 0 1-1.783-1.682 5.746 5.746 0 0 1-.425-5.206c.817-.117 1.65.02 2.391.392.748.377 1.372.97 1.794 1.705a6.024 6.024 0 0 1 .39 5.186Zm-4.976 8.707a6.577 6.577 0 0 1 1.668-2.49 6.255 6.255 0 0 1 2.57-1.445 4.486 4.486 0 0 1 2.62-.11c.87.226 1.66.705 2.281 1.381a6.583 6.583 0 0 1-1.659 2.505 6.247 6.247 0 0 1-2.57 1.458c-.847.3-1.76.337-2.63.105a4.678 4.678 0 0 1-2.28-1.404Zm-.591-.74a4.85 4.85 0 0 1-2.265-1.54 5.142 5.142 0 0 1-1.118-2.56 7.16 7.16 0 0 1-.017-3.051 6.91 6.91 0 0 1 1.252-2.74c.875.283 1.657.82 2.256 1.546.6.727.99 1.61 1.127 2.552a7.158 7.158 0 0 1 .017 3.052 6.91 6.91 0 0 1-1.252 2.74Zm3.52 6.065a7.299 7.299 0 0 1-1.828 2.754 6.94 6.94 0 0 1-2.82 1.613 4.919 4.919 0 0 1-2.919.065 5.17 5.17 0 0 1-2.496-1.608 7.126 7.126 0 0 1 1.814-2.746 6.772 6.772 0 0 1 2.818-1.587 4.917 4.917 0 0 1 2.921-.087c.97.272 1.841.826 2.509 1.596h.001Zm-12.935-8.94a5.302 5.302 0 0 1 2.484 1.695 5.616 5.616 0 0 1 1.222 2.813 7.876 7.876 0 0 1-.044 3.404 7.596 7.596 0 0 1-1.472 3.021 5.479 5.479 0 0 1-2.473-1.724 5.794 5.794 0 0 1-1.242-2.81 7.759 7.759 0 0 1 .042-3.394 7.467 7.467 0 0 1 1.483-3.004Z" fill="#fff"/></svg>