<?xml version="1.0" standalone="no"?>
<!DOCTYPE svg PUBLIC "-//W3C//DTD SVG 20010904//EN"
 "http://www.w3.org/TR/2001/REC-SVG-20010904/DTD/svg10.dtd">
<svg version="1.0" xmlns="http://www.w3.org/2000/svg"
 width="257.000000pt" height="257.000000pt" viewBox="0 0 257.000000 257.000000"
 preserveAspectRatio="xMidYMid meet">
<metadata>
Created by potrace 1.14, written by Peter Selinger 2001-2017
</metadata>
<g transform="translate(0.000000,257.000000) scale(0.100000,-0.100000)"
fill="#000000" stroke="none">
<path d="M490 2540 c-84 -16 -218 -76 -257 -116 -8 -7 -22 -19 -31 -26 -38
-28 -113 -128 -141 -188 -99 -210 -73 -450 70 -631 180 -227 482 -291 746
-158 189 95 310 287 319 504 4 114 -14 196 -66 300 -73 144 -185 240 -350 297
-63 22 -220 32 -290 18z"/>
<path d="M1370 1950 l0 -600 600 0 600 0 0 600 0 600 -600 0 -600 0 0 -600z"/>
<path d="M1729 916 c-8 -8 -120 -17 -263 -21 -76 -3 -141 -7 -144 -9 -13 -14
10 -36 38 -36 35 0 31 33 32 -283 0 -115 -2 -210 -4 -212 -4 -4 -40 -12 -61
-14 -5 -1 -7 -8 -5 -17 3 -15 27 -17 231 -17 125 0 229 2 231 4 2 2 7 33 11
69 4 36 8 69 8 75 1 5 -8 11 -20 13 -20 3 -22 -2 -29 -57 l-7 -61 -103 1 c-57
1 -104 5 -105 8 -1 10 -1 155 0 167 1 7 32 15 77 19 52 5 77 11 81 21 10 27
-5 30 -99 20 -43 -4 -58 -2 -59 7 -4 85 -2 250 3 253 4 3 28 7 53 10 25 2 65
6 89 8 l45 5 7 -57 c4 -31 7 -60 6 -64 -3 -13 27 -16 37 -4 12 14 -5 142 -22
164 -10 12 -20 15 -28 8z m-234 -301 c0 -126 -2 -238 -4 -248 -3 -13 -11 -17
-30 -15 l-26 3 -1 240 c0 132 2 244 4 248 2 5 16 7 30 5 l27 -3 0 -230z"/>
<path d="M2148 862 c-86 -134 -177 -334 -208 -459 -9 -35 -16 -44 -38 -49 -56
-12 -62 -16 -62 -35 0 -17 4 -19 37 -13 47 9 107 9 166 0 43 -7 47 -5 47 13 0
20 -31 32 -90 36 -14 0 -24 4 -24 8 1 4 5 24 9 45 8 47 32 85 48 75 6 -4 65
-7 130 -7 l119 -1 18 -57 c10 -31 15 -60 12 -63 -3 -3 -18 -5 -32 -5 -30 0
-56 -23 -45 -40 5 -8 24 -9 59 -4 56 8 170 7 228 -1 22 -4 39 -1 43 6 11 16
-9 31 -47 35 -50 6 -55 10 -63 50 -31 168 -204 524 -254 524 -9 0 -33 -26 -53
-58z m85 -40 c59 -89 155 -312 171 -395 2 -12 7 -33 11 -47 5 -23 3 -26 -21
-25 -31 2 -32 3 -70 130 -30 100 -88 233 -127 290 -21 31 -24 41 -15 61 15 32
21 30 51 -14z m-24 -156 c22 -47 41 -92 41 -100 0 -8 5 -18 11 -22 25 -15 -20
-24 -123 -24 -84 0 -108 3 -108 14 0 7 25 64 55 126 44 89 58 110 69 101 7 -6
32 -49 55 -95z"/>
<path d="M204 898 c-9 -14 7 -26 44 -31 19 -3 36 -8 39 -11 5 -4 4 -143 -2
-381 -1 -60 -3 -113 -4 -117 0 -5 -14 -8 -30 -8 -32 0 -60 -24 -41 -35 9 -6
207 -9 288 -6 17 1 15 28 -4 35 -9 3 -28 6 -43 6 l-28 0 3 83 c2 45 6 159 8
252 3 94 5 171 5 173 1 1 12 2 25 2 13 0 31 3 40 6 19 7 22 34 4 34 -7 0 -77
2 -156 4 -85 2 -145 0 -148 -6z m187 -50 c1 -17 -3 -263 -6 -353 -2 -38 -3
-85 -4 -103 -1 -34 -24 -53 -43 -34 -11 11 -11 426 1 495 2 12 51 8 52 -5z"/>
<path d="M712 902 c-101 -2 -113 -5 -110 -20 2 -12 15 -18 41 -20 34 -3 37 -6
38 -35 1 -18 2 -66 4 -107 1 -41 4 -140 6 -220 3 -137 2 -145 -16 -148 -51 -7
-65 -13 -65 -27 0 -8 6 -15 13 -16 80 -3 278 1 286 5 19 12 1 32 -31 34 -18 2
-34 5 -37 8 -3 3 -6 52 -8 109 -2 98 -1 105 19 116 19 10 26 7 55 -27 40 -47
87 -134 104 -192 7 -23 17 -46 23 -50 6 -5 61 -2 121 7 98 14 110 18 110 36 0
21 -11 23 -79 14 -26 -4 -30 0 -42 41 -25 85 -84 187 -144 247 l-31 32 20 23
c11 13 29 34 40 47 11 13 29 41 38 62 16 34 22 39 55 39 46 0 68 8 68 25 0 19
-16 22 -115 19 -118 -2 -115 -2 -115 -18 0 -16 21 -26 56 -26 13 0 24 -2 24
-5 0 -8 -69 -107 -94 -134 -11 -12 -42 -41 -68 -63 l-48 -40 0 120 0 119 43 9
c27 6 42 15 42 24 0 16 -9 17 -203 12z m76 -300 l3 -252 -23 4 c-13 3 -25 5
-28 5 -3 1 -6 83 -8 184 -2 100 -4 210 -6 244 -3 64 2 73 39 70 19 -2 19 -12
23 -255z m201 1 c44 -50 107 -168 117 -219 5 -29 4 -31 -19 -31 -21 0 -28 8
-42 46 -23 61 -60 126 -101 178 -37 45 -41 59 -21 66 22 9 25 8 66 -40z"/>
</g>
</svg>
